<svg width="100" height="100" viewBox="0 0 100 100" fill="none" xmlns="http://www.w3.org/2000/svg">
<g clip-path="url(#clip0_1702_1238)">
<path d="M50 100C77.6142 100 100 77.6142 100 50C100 22.3858 77.6142 0 50 0C22.3858 0 0 22.3858 0 50C0 77.6142 22.3858 100 50 100Z" fill="white"/>
<path d="M49.4235 61.2148L62.2367 51.9328L79.2562 75.427C75.8579 77.8888 71.6209 78.8997 67.4772 78.2375C63.3335 77.5753 59.6226 75.2941 57.1609 71.8958L49.4235 61.2148Z" fill="url(#paint0_linear_1702_1238)"/>
<path d="M26.6486 78.1656H26.407V61.6165C26.407 61.2539 26.5511 60.9061 26.8075 60.6497C27.0639 60.3933 27.4117 60.2493 27.7743 60.2493H42.2556V62.5586C42.2556 64.6081 41.8519 66.6376 41.0676 68.5311C40.2833 70.4246 39.1337 72.1451 37.6844 73.5944C36.2352 75.0436 34.5147 76.1933 32.6212 76.9776C30.7276 77.7619 28.6981 78.1656 26.6486 78.1656Z" fill="url(#paint1_linear_1702_1238)"/>
<path d="M55.0341 38.5815C55.3158 38.7103 55.581 38.8725 55.824 39.0647C56.3787 39.5082 56.812 40.0852 57.0832 40.7417C57.3544 41.3982 57.4547 42.1127 57.3748 42.8185C57.2684 43.5772 56.9518 44.291 56.4609 44.8793C55.97 45.4675 55.3243 45.9067 54.5969 46.1471H40.6276C40.6276 46.1471 29.1681 46.6109 27.0206 56.7201C24.8732 66.8293 29.0425 74.5809 29.0425 74.5809C29.0425 74.5809 29.4483 70.1145 31.045 67.7496C32.3856 65.7737 33.9437 64.1263 36.1177 62.9595C37.8608 62.0681 39.7681 61.5436 41.7218 61.4184L57.7444 61.1768C59.7065 61.1451 61.654 60.8319 63.5272 60.2468C65.9017 59.5028 68.798 58.2685 70.443 56.5196C73.378 53.3987 72.605 43.8861 72.605 43.8861L65.293 39.2676L55.0341 38.5815Z" fill="url(#paint2_linear_1702_1238)"/>
<path d="M55.8191 39.0671C55.8191 39.0671 61.2155 38.596 65.3196 41.1807C69.4236 43.7654 71.5324 48.2776 70.1773 52.674C68.8221 57.0703 67.595 58.5704 67.595 58.5704C67.595 58.5704 69.2618 53.6378 68.5202 50.3575C67.7158 46.8017 65.4476 43.9948 62.9112 42.2629C60.3435 40.4971 58.6646 39.6782 55.8191 39.0671Z" fill="url(#paint3_linear_1702_1238)"/>
<path d="M75.3974 38.5333C73.0156 23.4939 54.1886 23.4939 54.1886 23.4939H25.7307C25.7314 27.6156 27.369 31.5684 30.2835 34.4829C33.198 37.3974 37.1508 39.0351 41.2725 39.0357H54.1934C54.741 39.0357 55.2845 39.0462 55.8239 39.0671C60.6165 39.27 65.1867 40.5165 68.3849 45.8815C71.5566 51.1957 67.5975 58.5705 67.5975 58.5705C67.5975 58.5705 77.8395 53.9446 75.3974 38.5333Z" fill="url(#paint4_linear_1702_1238)"/>
</g>
<defs>
<linearGradient id="paint0_linear_1702_1238" x1="72.3786" y1="79.3438" x2="59.1185" y2="61.0998" gradientUnits="userSpaceOnUse">
<stop stop-color="#00D1FF"/>
<stop offset="0.96" stop-color="#572AD3"/>
</linearGradient>
<linearGradient id="paint1_linear_1702_1238" x1="26.407" y1="69.2086" x2="42.2556" y2="69.2086" gradientUnits="userSpaceOnUse">
<stop stop-color="#C567FF"/>
<stop offset="0.19" stop-color="#C365FF"/>
<stop offset="0.92" stop-color="#7906FF"/>
</linearGradient>
<linearGradient id="paint2_linear_1702_1238" x1="26.4071" y1="56.5848" x2="72.6968" y2="56.5848" gradientUnits="userSpaceOnUse">
<stop stop-color="#C567FF"/>
<stop offset="0.35" stop-color="#C365FF"/>
<stop offset="0.92" stop-color="#7906FF"/>
</linearGradient>
<linearGradient id="paint3_linear_1702_1238" x1="60.242" y1="49.5313" x2="73.5301" y2="43.0842" gradientUnits="userSpaceOnUse">
<stop offset="0.15" stop-color="#7906FF" stop-opacity="0"/>
<stop offset="0.82" stop-color="#231815"/>
</linearGradient>
<linearGradient id="paint4_linear_1702_1238" x1="25.7259" y1="41.031" x2="75.7742" y2="41.031" gradientUnits="userSpaceOnUse">
<stop stop-color="#00D1FF"/>
<stop offset="0.24" stop-color="#00CFFF"/>
<stop offset="0.77" stop-color="#7857FF"/>
</linearGradient>
<clipPath id="clip0_1702_1238">
<rect width="100" height="100" fill="white"/>
</clipPath>
</defs>
</svg>
