<svg width="25" height="17" viewBox="0 0 25 17" fill="none" xmlns="http://www.w3.org/2000/svg">
<path d="M17.3359 6.72837L12.5176 14.2087C12.3936 14.4019 12.3239 14.6249 12.3158 14.8543C12.3076 15.0837 12.3613 15.3111 12.4712 15.5126C12.5811 15.7141 12.7432 15.8823 12.9405 15.9997C13.1378 16.117 13.363 16.1791 13.5926 16.1795H23.2293C23.4589 16.1791 23.6841 16.117 23.8814 15.9997C24.0787 15.8823 24.2408 15.7141 24.3507 15.5126C24.4606 15.3111 24.5143 15.0837 24.5062 14.8543C24.498 14.6249 24.4283 14.4019 24.3043 14.2087L19.486 6.72197C19.3694 6.5427 19.2098 6.39549 19.0217 6.29379C18.8336 6.19209 18.623 6.13914 18.4092 6.13978C18.1954 6.14041 17.9851 6.19462 17.7976 6.29743C17.6102 6.40025 17.4514 6.54841 17.3359 6.72837V6.72837Z" fill="white" fill-opacity="0.7"/>
<path d="M7.63973 3.29858L0.60095 14.2087C0.476992 14.4019 0.407282 14.6249 0.399124 14.8543C0.390966 15.0837 0.444661 15.3111 0.554582 15.5126C0.664504 15.7141 0.826604 15.8824 1.0239 15.9997C1.22119 16.117 1.44641 16.1792 1.67596 16.1795H15.7535C15.9831 16.1792 16.2083 16.117 16.4056 15.9997C16.6029 15.8824 16.765 15.7141 16.8749 15.5126C16.9848 15.3111 17.0385 15.0837 17.0304 14.8543C17.0222 14.6249 16.9525 14.4019 16.8285 14.2087L9.78975 3.29858C9.67374 3.11897 9.51456 2.97129 9.32677 2.86903C9.13898 2.76677 8.92857 2.7132 8.71474 2.7132C8.50091 2.7132 8.2905 2.76677 8.10271 2.86903C7.91492 2.97129 7.75575 3.11897 7.63973 3.29858V3.29858Z" fill="white"/>
<path d="M13.9999 2C13.9999 2.53043 14.2106 3.03914 14.5857 3.41421C14.9607 3.78929 15.4694 4 15.9999 4C16.5303 4 17.039 3.78929 17.4141 3.41421C17.7892 3.03914 17.9999 2.53043 17.9999 2C17.9999 1.46957 17.7892 0.96086 17.4141 0.585787C17.039 0.210714 16.5303 0 15.9999 0C15.4694 0 14.9607 0.210714 14.5857 0.585787C14.2106 0.96086 13.9999 1.46957 13.9999 2V2Z" fill="white"/>
</svg>
