<svg width="12" height="12" viewBox="0 0 12 12" fill="none" xmlns="http://www.w3.org/2000/svg">
<g clip-path="url(#clip0_591_1072)">
<path d="M11.4314 5.49081H10.2563C10.1421 4.53653 9.71047 3.64831 9.03083 2.96875C8.35119 2.2892 7.46292 1.85772 6.50862 1.74358V0.568503C6.50851 0.5403 6.49731 0.513273 6.47746 0.493244C6.4576 0.473215 6.43067 0.461789 6.40247 0.461426H5.59847C5.57011 0.461547 5.54294 0.472868 5.52289 0.492922C5.50284 0.512977 5.49152 0.540142 5.49139 0.568503V1.74358C4.53711 1.85783 3.6489 2.28942 2.96934 2.96907C2.28978 3.64871 1.8583 4.53697 1.74416 5.49127H0.568625C0.540343 5.49139 0.513247 5.50265 0.493206 5.5226C0.473164 5.54256 0.46179 5.56961 0.461548 5.59789V6.40189C0.461548 6.4605 0.509548 6.50896 0.568625 6.50896H1.7437C1.85796 7.46325 2.28955 8.35146 2.96919 9.03102C3.64883 9.71058 4.5371 10.1421 5.49139 10.2562V11.4313C5.49139 11.4903 5.53939 11.5383 5.59801 11.5383H6.40201C6.43037 11.5382 6.45754 11.5269 6.47759 11.5069C6.49764 11.4868 6.50896 11.4596 6.50909 11.4313V10.2562C7.46337 10.1419 8.35158 9.71035 9.03114 9.03071C9.7107 8.35107 10.1422 7.4628 10.2563 6.5085H11.4314C11.4597 6.50838 11.4868 6.49713 11.5068 6.47717C11.5269 6.45721 11.5382 6.43017 11.5385 6.40189V5.59789C11.5383 5.56953 11.527 5.54236 11.507 5.52231C11.4869 5.50225 11.4598 5.49093 11.4314 5.49081ZM6.00001 9.26758C5.57087 9.26764 5.14593 9.18316 4.74945 9.01896C4.35296 8.85477 3.99271 8.61407 3.68927 8.31063C3.38582 8.00718 3.14513 7.64693 2.98093 7.25045C2.81674 6.85397 2.73226 6.42902 2.73232 5.99989C2.73226 5.57075 2.81674 5.14581 2.98093 4.74932C3.14513 4.35284 3.38582 3.99259 3.68927 3.68914C3.99271 3.3857 4.35296 3.14501 4.74945 2.98081C5.14593 2.81661 5.57087 2.73213 6.00001 2.73219C6.42915 2.73213 6.85409 2.81661 7.25057 2.98081C7.64705 3.14501 8.00731 3.3857 8.31075 3.68914C8.6142 3.99259 8.85489 4.35284 9.01909 4.74932C9.18328 5.14581 9.26776 5.57075 9.2677 5.99989C9.26776 6.42902 9.18328 6.85397 9.01909 7.25045C8.85489 7.64693 8.6142 8.00718 8.31075 8.31063C8.00731 8.61407 7.64705 8.85477 7.25057 9.01896C6.85409 9.18316 6.42915 9.26764 6.00001 9.26758Z" fill="white"/>
<path d="M5.99998 4.61525C5.62936 4.61525 5.28321 4.75832 5.02152 5.0214C4.89237 5.14945 4.78996 5.3019 4.72024 5.46987C4.65051 5.63784 4.61486 5.81799 4.61536 5.99986C4.61536 6.37048 4.75982 6.71663 5.02152 6.97832C5.14981 7.10714 5.3023 7.20933 5.47022 7.27903C5.63813 7.34873 5.81817 7.38457 5.99998 7.38448C6.36921 7.38448 6.71675 7.24002 6.97844 6.97832C7.10725 6.85002 7.20945 6.69754 7.27915 6.52962C7.34885 6.3617 7.38468 6.18167 7.38459 5.99986C7.38459 5.63063 7.24013 5.28309 6.97844 5.0214C6.85054 4.89205 6.69813 4.7895 6.53012 4.71976C6.36211 4.65002 6.18188 4.61449 5.99998 4.61525Z" fill="white"/>
</g>
<defs>
<clipPath id="clip0_591_1072">
<rect width="12" height="12" fill="white"/>
</clipPath>
</defs>
</svg>
