<?xml version="1.0" standalone="no"?><!DOCTYPE svg PUBLIC "-//W3C//DTD SVG 1.1//EN" "http://www.w3.org/Graphics/SVG/1.1/DTD/svg11.dtd"><svg t="1664458670679" class="icon" viewBox="0 0 1024 1024" version="1.1" xmlns="http://www.w3.org/2000/svg" p-id="4565" xmlns:xlink="http://www.w3.org/1999/xlink" width="77" height="77"><path d="M704 128c-74.24 0-145.493333 34.56-192 89.173333C465.493333 162.56 394.24 128 320 128 188.586667 128 85.333333 231.253333 85.333333 362.666667c0 161.28 145.066667 292.693333 364.8 492.373333L512 910.933333l61.866667-56.32C793.6 655.36 938.666667 523.946667 938.666667 362.666667 938.666667 231.253333 835.413333 128 704 128z m-187.733333 663.466667l-4.266667 4.266666-4.266667-4.266666C304.64 607.573333 170.666667 485.973333 170.666667 362.666667 170.666667 277.333333 234.666667 213.333333 320 213.333333c65.706667 0 129.706667 42.24 152.32 100.693334h79.786667C574.293333 255.573333 638.293333 213.333333 704 213.333333c85.333333 0 149.333333 64 149.333333 149.333334 0 123.306667-133.973333 244.906667-337.066666 428.8z" p-id="4566" fill="#ffffff"></path></svg>