<svg width="10" height="12" viewBox="0 0 10 12" fill="none" xmlns="http://www.w3.org/2000/svg">
<path d="M4.99882 0.75C2.72501 0.75 0.874512 2.6005 0.874512 4.87431C0.874512 7.0695 4.57147 10.968 4.7287 11.1333C4.79926 11.2079 4.89803 11.2503 5.00083 11.2503C5.00285 11.2503 5.00688 11.2503 5.0089 11.2503C5.11372 11.2503 5.21451 11.2019 5.28305 11.1212L6.56307 9.65576C8.2644 7.57345 9.12514 5.96485 9.12514 4.87632C9.12514 2.6005 7.27465 0.75 4.99882 0.75ZM4.99882 6.74899C3.9627 6.74899 3.12413 5.91042 3.12413 4.87431C3.12413 3.83819 3.9627 2.99962 4.99882 2.99962C6.03494 2.99962 6.8735 3.83819 6.8735 4.87431C6.8735 5.91042 6.03494 6.74899 4.99882 6.74899Z"/>
</svg>
