<svg width="13" height="13" viewBox="0 0 13 13" fill="none" xmlns="http://www.w3.org/2000/svg">
<path d="M6.02411 0.0844727C2.71041 0.0844727 0.0234375 2.77144 0.0234375 6.08515C0.0234375 7.8909 0.82073 9.50985 2.08232 10.609C2.30567 10.8039 1.48672 12.0628 1.48672 12.0628C1.48672 12.0628 5.29992 12.0858 6.02411 12.0858C9.33782 12.0858 12.0234 9.39886 12.0234 6.08515C12.0234 2.77144 9.33782 0.0844727 6.02411 0.0844727ZM8.29552 6.30444C8.2874 6.31391 8.27927 6.32204 8.27115 6.33016L6.38012 8.22119C6.18384 8.41747 5.86303 8.41747 5.66675 8.22119L3.77572 6.33016C3.7676 6.32204 3.75948 6.31256 3.75136 6.30444C3.48063 6.03913 3.31278 5.66958 3.31278 5.26078C3.31278 4.45537 3.96658 3.80156 4.772 3.80156C5.30398 3.80156 5.76828 4.08583 6.02411 4.50952C6.2786 4.08447 6.74425 3.80156 7.27623 3.80156C8.08164 3.80156 8.73545 4.45537 8.73545 5.26078C8.7341 5.66958 8.56625 6.03913 8.29552 6.30444Z" fill="url(#paint0_linear_571_8979)"/>
<defs>
<linearGradient id="paint0_linear_571_8979" x1="0.0234374" y1="4.34664" x2="15.8242" y2="4.77057" gradientUnits="userSpaceOnUse">
<stop stop-color="#B04CFF"/>
<stop offset="1" stop-color="#0CC4FF"/>
</linearGradient>
</defs>
</svg>
