<svg width="18" height="16" viewBox="0 0 18 16" fill="none" xmlns="http://www.w3.org/2000/svg">
<path d="M16.0859 2.67773C16.0859 1.48438 15.1094 0.507812 13.916 0.507812H4.08398C2.89062 0.507812 1.91406 1.48438 1.91406 2.67773L0.927734 13.3223C0.927734 14.5156 1.9043 15.4922 3.09766 15.4922H14.9023C16.0957 15.4922 17.0723 14.5156 17.0723 13.3223L16.0859 2.67773V2.67773ZM14.084 4.83008C13.8711 6.01367 13.2617 7.08008 12.3613 7.84375C11.4375 8.62695 10.2441 9.05664 9 9.05664C7.75586 9.05664 6.5625 8.62695 5.63867 7.84375C4.73828 7.08008 4.12695 6.01172 3.91406 4.82812C3.61719 4.63086 3.43555 4.29687 3.43555 3.93945C3.43555 3.65625 3.54492 3.39062 3.74414 3.19141C3.94336 2.99219 4.20898 2.88281 4.49219 2.88281C4.77539 2.88281 5.04102 2.99219 5.24023 3.19141C5.43945 3.39062 5.54883 3.65625 5.54883 3.93945C5.54883 4.27148 5.39453 4.58008 5.12891 4.7832C5.50195 6.5625 7.11328 7.84375 9 7.84375C10.8887 7.84375 12.5 6.5625 12.8691 4.78516C12.6035 4.58203 12.4492 4.27344 12.4492 3.94141C12.4492 3.6582 12.5586 3.39258 12.7578 3.19336C12.957 2.99414 13.2227 2.88477 13.5059 2.88477C13.7891 2.88477 14.0547 2.99414 14.2539 3.19336C14.4531 3.39258 14.5625 3.6582 14.5625 3.94141C14.5625 4.30859 14.3848 4.63477 14.084 4.83008V4.83008Z" fill="white"/>
</svg>
