<?xml version="1.0" standalone="no"?><!DOCTYPE svg PUBLIC "-//W3C//DTD SVG 1.1//EN" "http://www.w3.org/Graphics/SVG/1.1/DTD/svg11.dtd"><svg t="1661241545516" class="icon" viewBox="0 0 1024 1024" version="1.1" xmlns="http://www.w3.org/2000/svg" p-id="17494" xmlns:xlink="http://www.w3.org/1999/xlink" width="400" height="400"><path d="M810.666667 247.04l-217.6 544-89.6-179.2A128 128 0 0 0 444.16 554.666667L264.533333 464.64 810.666667 247.04M885.333333 128a42.666667 42.666667 0 0 0-15.786666 3.413333l-725.333334 290.133334a42.666667 42.666667 0 0 0-2.986666 77.226666l264.533333 132.266667a42.666667 42.666667 0 0 1 19.2 19.2l132.266667 264.533333A42.666667 42.666667 0 0 0 597.333333 938.666667a42.666667 42.666667 0 0 0 39.68-26.453334l289.706667-725.333333A42.666667 42.666667 0 0 0 885.333333 128z"></path></svg>