<svg width="129" height="105" viewBox="0 0 129 105" fill="none" xmlns="http://www.w3.org/2000/svg">
<path d="M64.5 104.8C100.122 104.8 129 93.5959 129 79.775C129 65.9541 100.122 54.75 64.5 54.75C28.8776 54.75 0 65.9541 0 79.775C0 93.5959 28.8776 104.8 64.5 104.8Z" fill="url(#paint0_linear_1336_723)"/>
<path d="M122.65 101.999H31.05L34.75 70.8994L66.525 66.5244L95.025 71.0994L122.65 101.999Z" fill="url(#paint1_linear_1336_723)"/>
<path d="M63.525 78.6241L35.125 72.5491L34.45 30.9241L61.55 25.0991L63.525 78.6241Z" fill="url(#paint2_linear_1336_723)"/>
<path d="M95.3751 71.4735L63.5251 78.6485L61.5751 25.1235L95.0001 28.5485L95.3751 71.4735Z" fill="url(#paint3_linear_1336_723)"/>
<path d="M66.5752 79.3743L95.3752 71.4743L95.0002 28.5493L66.5502 34.6243V79.3743H66.5752Z" fill="url(#paint4_linear_1336_723)"/>
<path d="M66.575 79.3741H66.525L34.6 72.4491V31.0991L66.575 34.6241V79.3241C66.575 79.3241 66.575 79.3491 66.575 79.3741Z" fill="url(#paint5_linear_1336_723)"/>
<path d="M59.6249 50.0487L27.5249 44.2237L34.4499 30.9487L66.6249 34.5987L59.6249 50.0487Z" fill="url(#paint6_linear_1336_723)"/>
<path d="M104.425 41.8743L76.8003 50.0493L66.6503 34.5993L95.0003 28.5493L104.425 41.8743Z" fill="#5A8CFF"/>
<!-- <path d="M67.2999 30.2998C67.2999 30.2998 50.6749 27.9498 47.6499 20.0248C44.6249 12.0998 50.3249 7.52482 57.4749 8.64982C64.6249 9.77482 62.8249 20.4748 70.8749 19.5998C74.7249 19.1748 74.8249 14.9248 76.2249 12.6748C77.7499 10.2248 80.4749 9.77482 80.4749 9.77482" stroke="#5A8CFF" stroke-width="0.25" stroke-miterlimit="10" stroke-dasharray="3 3"/> -->
<path d="M82.375 11.9499L84.375 13.8999L95.075 0.849899V0.399902L75.45 4.8999V5.3499L79.025 8.6999L92.825 1.9999L80.35 9.9999L82.375 11.9499Z" fill="#4279F5"/>
<path d="M80.3499 9.9751V13.9001L82.3499 11.9501V11.5001L80.3499 9.9751Z" fill="#4279F5"/>
<path d="M82.375 11.4999L84.375 13.4499L95.075 0.399902L75.45 4.8999L79.025 8.2499L92.825 1.5499L80.35 9.5499L82.375 11.4999Z" fill="url(#paint7_linear_1336_723)"/>
<path d="M80.3499 9.52539V13.4504L82.3499 11.5004L80.3499 9.52539Z" fill="#5A8CFF"/>
<path d="M26.5 100.5L17.25 100.75L18 69.6501L20.225 69.6001L26.5 100.5Z" fill="url(#paint8_linear_1336_723)"/>
<path d="M37.7499 93.2491H22.7499L23.4999 67.5991L31.4749 66.9741L37.7499 93.2491Z" fill="url(#paint9_linear_1336_723)"/>
<path d="M18.65 39.4995L18 69.7495H20.25L19.95 39.4995H18.65Z" fill="url(#paint10_linear_1336_723)"/>
<path d="M16.95 41.4241C16.95 41.4241 30.65 40.4991 18.35 24.4741C18.35 24.4741 9.47499 28.4241 10.4 36.7741C10.4 36.7991 10.4 41.4241 16.95 41.4241Z" fill="#5A8CFF"/>
<path d="M18.0499 26.5737C18.0499 26.5737 6.89988 36.3237 9.69988 41.1987C9.69988 41.1987 13.1749 45.8487 23.6249 42.5987C34.0749 39.3487 24.5499 26.5737 18.0499 26.5737Z" fill="url(#paint11_linear_1336_723)"/>
<path d="M112.25 98.2246L110 74.7246L112 74.0996L114 74.6996L113.5 98.2246H112.25Z" fill="url(#paint12_linear_1336_723)"/>
<path d="M110.75 53.2495C110.75 53.2495 111.675 66.1995 110.5 72.3745C110.3 73.3745 109.5 74.4995 110 74.7495C110.5 74.9995 110.65 74.2995 111.9 74.2995C112.525 74.2995 113.75 74.9995 114 74.7495C114.25 74.4995 113.725 73.7995 113.375 72.1995C112.575 68.4245 111.375 60.9745 112.25 53.2495H110.75Z" fill="url(#paint13_linear_1336_723)"/>
<path d="M113.6 56.8249C113.6 59.8749 109.6 61.3499 106.55 61.3499C103.5 61.3499 101.5 58.3749 101.5 55.3249C101.5 52.2749 104.725 49.7749 107.8 49.7749C110.875 49.7749 113.6 53.7749 113.6 56.8249Z" fill="#5A8CFF"/>
<path d="M119.075 51.825C119.075 55.775 113.925 57.65 110 57.65C106.075 57.65 103.525 53.8 103.525 49.875C103.525 45.925 107.7 42.75 111.625 42.75C115.55 42.75 119.075 47.875 119.075 51.825Z" fill="url(#paint14_linear_1336_723)"/>
<path d="M113.9 61.2998C111.075 61.2998 108.725 58.2248 108.725 55.2248C108.725 52.2248 112.475 49.4248 115.3 49.4248C118.125 49.4248 122.2 51.5248 121.7 56.8248C121.2 62.1248 116.75 61.2998 113.9 61.2998Z" fill="url(#paint15_linear_1336_723)"/>
<path d="M27.225 61.7993L23.5 67.7243L27.675 69.4493L27.225 61.7993Z" fill="#5A8CFF"/>
<path d="M27.6749 69.4493L31.4999 66.9993L27.2249 61.7993L27.6749 69.4493Z" fill="#4279F5"/>
<path opacity="0.5" d="M58.2499 58.2495L41.4999 55.2495V51.2495L58.2499 54.2495V58.2495Z" fill="white"/>
<path opacity="0.5" d="M72.7499 54.9995V66.2495L89.4999 61.7495V50.4995L72.7499 54.9995ZM74.9999 60.0995L83.9249 57.5245V58.3995L74.9999 60.9995V60.0995ZM87.4999 59.6495L74.9999 63.2495V62.3495L87.4999 58.7495V59.6495ZM87.4999 54.3995L74.9999 57.9995V57.0995L87.4999 53.4995V54.3995Z" fill="white"/>
<defs>
<linearGradient id="paint0_linear_1336_723" x1="64.5077" y1="104.8" x2="64.5077" y2="54.7671" gradientUnits="userSpaceOnUse">
<stop stop-color="#5A8CFF" stop-opacity="0"/>
<stop offset="1" stop-color="#5A8CFF" stop-opacity="0.7"/>
</linearGradient>
<linearGradient id="paint1_linear_1336_723" x1="76.8555" y1="101.999" x2="76.8555" y2="66.5365" gradientUnits="userSpaceOnUse">
<stop stop-color="#5A8CFF" stop-opacity="0"/>
<stop offset="1" stop-color="#5A8CFF" stop-opacity="0.7"/>
</linearGradient>
<linearGradient id="paint2_linear_1336_723" x1="65.0008" y1="68.7595" x2="30.4591" y2="35.6757" gradientUnits="userSpaceOnUse">
<stop stop-color="#B04CFF"/>
<stop offset="1" stop-color="#0CC4FF"/>
</linearGradient>
<linearGradient id="paint3_linear_1336_723" x1="97.0908" y1="68.7839" x2="62.7156" y2="30.5091" gradientUnits="userSpaceOnUse">
<stop stop-color="#B04CFF"/>
<stop offset="1" stop-color="#0CC4FF"/>
</linearGradient>
<linearGradient id="paint4_linear_1336_723" x1="96.8383" y1="70.0073" x2="64.0085" y2="37.1775" gradientUnits="userSpaceOnUse">
<stop stop-color="#654CFF"/>
<stop offset="1" stop-color="#0CC4FF"/>
</linearGradient>
<linearGradient id="paint5_linear_1336_723" x1="68.198" y1="70.4771" x2="37.3871" y2="34.4937" gradientUnits="userSpaceOnUse">
<stop stop-color="#654CFF"/>
<stop offset="1" stop-color="#0CC4FF"/>
</linearGradient>
<linearGradient id="paint6_linear_1336_723" x1="68.6096" y1="46.5286" x2="62.2609" y2="23.6126" gradientUnits="userSpaceOnUse">
<stop stop-color="#654CFF"/>
<stop offset="1" stop-color="#0CC4FF"/>
</linearGradient>
<linearGradient id="paint7_linear_1336_723" x1="96.0711" y1="11.0448" x2="90.5048" y2="-3.71495" gradientUnits="userSpaceOnUse">
<stop stop-color="#654CFF"/>
<stop offset="1" stop-color="#0CC4FF"/>
</linearGradient>
<linearGradient id="paint8_linear_1336_723" x1="21.8756" y1="100.75" x2="21.8756" y2="69.6107" gradientUnits="userSpaceOnUse">
<stop stop-color="#5A8CFF" stop-opacity="0"/>
<stop offset="1" stop-color="#5A8CFF" stop-opacity="0.7"/>
</linearGradient>
<linearGradient id="paint9_linear_1336_723" x1="30.2508" y1="93.2491" x2="30.2508" y2="66.9831" gradientUnits="userSpaceOnUse">
<stop stop-color="#5A8CFF" stop-opacity="0"/>
<stop offset="1" stop-color="#5A8CFF" stop-opacity="0.7"/>
</linearGradient>
<linearGradient id="paint10_linear_1336_723" x1="20.3642" y1="64.1744" x2="15.3257" y2="63.5136" gradientUnits="userSpaceOnUse">
<stop stop-color="#654CFF"/>
<stop offset="1" stop-color="#0CC4FF"/>
</linearGradient>
<linearGradient id="paint11_linear_1336_723" x1="29.24" y1="40.5862" x2="20.2366" y2="23.0043" gradientUnits="userSpaceOnUse">
<stop stop-color="#654CFF"/>
<stop offset="1" stop-color="#0CC4FF"/>
</linearGradient>
<linearGradient id="paint12_linear_1336_723" x1="112" y1="98.2246" x2="112" y2="74.1079" gradientUnits="userSpaceOnUse">
<stop stop-color="#5A8CFF" stop-opacity="0"/>
<stop offset="1" stop-color="#5A8CFF" stop-opacity="0.7"/>
</linearGradient>
<linearGradient id="paint13_linear_1336_723" x1="114.28" y1="70.8311" x2="105.679" y2="67.8572" gradientUnits="userSpaceOnUse">
<stop stop-color="#654CFF"/>
<stop offset="1" stop-color="#0CC4FF"/>
</linearGradient>
<linearGradient id="paint14_linear_1336_723" x1="119.865" y1="54.9039" x2="111.789" y2="40.0436" gradientUnits="userSpaceOnUse">
<stop stop-color="#B04CFF"/>
<stop offset="1" stop-color="#0CC4FF"/>
</linearGradient>
<linearGradient id="paint15_linear_1336_723" x1="122.403" y1="59.1492" x2="116.103" y2="47.0203" gradientUnits="userSpaceOnUse">
<stop stop-color="#654CFF"/>
<stop offset="1" stop-color="#0CC4FF"/>
</linearGradient>
</defs>
</svg>
