<svg width="16" height="16" viewBox="0 0 16 16" fill="none" xmlns="http://www.w3.org/2000/svg">
<path d="M12.8827 12.9174H3.46399C3.19368 12.9174 2.94211 12.783 2.79055 12.5596C2.63899 12.3346 2.6093 12.0518 2.71086 11.8002L3.47961 9.90176V7.01738C3.47961 6.40957 3.59993 5.81895 3.83743 5.26113C4.06555 4.72363 4.39211 4.24082 4.80774 3.8252C5.22336 3.40957 5.70618 3.08301 6.24368 2.85488C6.80149 2.61738 7.39211 2.49707 7.99993 2.49707H8.01086C8.61868 2.49707 9.2093 2.61738 9.76711 2.85488C10.3046 3.08301 10.7874 3.40957 11.2031 3.8252C11.6187 4.24082 11.9452 4.72363 12.1734 5.26113C12.4109 5.81895 12.5312 6.40957 12.5312 7.01738V9.86582L13.5859 11.7002C13.7327 11.9549 13.7312 12.258 13.5843 12.5127C13.439 12.7658 13.1749 12.9174 12.8827 12.9174ZM3.74211 11.9174H12.5577L11.5312 10.133V7.01738C11.5312 6.08145 11.164 5.19863 10.4968 4.53145C9.82961 3.86426 8.9468 3.49707 8.01086 3.49707H7.99993C7.06399 3.49707 6.18118 3.86426 5.51399 4.53145C4.8468 5.19863 4.47961 6.08145 4.47961 7.01738V10.0971L3.74211 11.9174Z" fill="white"/>
<path d="M6.76255 3.6373C6.55161 3.6373 6.36567 3.48574 6.32817 3.27168C6.31099 3.1748 6.30317 3.07637 6.30317 2.97949C6.30317 2.0498 7.05942 1.29199 7.99067 1.29199C8.92192 1.29199 9.67817 2.04824 9.67817 2.97949C9.67817 3.07637 9.6688 3.1748 9.65317 3.27168C9.61099 3.50918 9.38599 3.67012 9.14692 3.63105L8.25942 3.4873C8.0813 3.45762 7.90005 3.45762 7.72036 3.4873L6.83286 3.63105C6.80942 3.63574 6.78599 3.6373 6.76255 3.6373ZM7.98911 2.58262C8.12661 2.58262 8.26411 2.59355 8.40005 2.61543L8.7313 2.66855C8.60942 2.37949 8.32349 2.1748 7.98911 2.1748C7.65474 2.1748 7.3688 2.37949 7.24692 2.66855L7.57817 2.61543C7.71567 2.59355 7.85317 2.58262 7.98911 2.58262ZM10.2813 14.7811H5.88599C5.61099 14.7811 5.38599 14.5561 5.38599 14.2811C5.38599 14.0061 5.61099 13.7811 5.88599 13.7811H10.2813C10.5563 13.7811 10.7813 14.0061 10.7813 14.2811C10.7813 14.5561 10.5563 14.7811 10.2813 14.7811Z" fill="white"/>
</svg>
