<svg width="20" height="23" viewBox="0 0 20 23" fill="none" xmlns="http://www.w3.org/2000/svg">
<g clip-path="url(#clip0_372_10166)">
<path d="M4.7485 3.89126C4.49 3.57445 4.35017 3.17879 4.35279 2.77146C4.35622 2.35276 4.51186 1.9493 4.7912 1.63501C5.07054 1.32072 5.45487 1.11667 5.87377 1.06021C6.29266 1.00376 6.71806 1.0987 7.07203 1.32764C7.42599 1.55658 7.68482 1.90418 7.80107 2.30676C8.5448 2.08277 9.31885 1.97325 10.0961 1.98202C11.0919 1.98314 12.0782 2.1732 13.0018 2.54192C13.0517 2.26053 13.1709 1.99565 13.3486 1.77063C13.5264 1.54561 13.7573 1.36736 14.021 1.25162C14.2847 1.13588 14.5732 1.08618 14.8609 1.10693C15.1486 1.12768 15.4267 1.21823 15.6707 1.37059C15.9148 1.52296 16.1172 1.73246 16.2601 1.98061C16.4031 2.22876 16.4822 2.50793 16.4905 2.79352C16.4988 3.07912 16.436 3.36235 16.3077 3.61823C16.1794 3.87411 15.9895 4.09478 15.7547 4.26079C16.9607 5.33847 17.9264 6.65346 18.5903 8.12174C19.2541 9.59001 19.6014 11.1793 19.61 12.788C19.5868 15.3124 18.552 17.7243 16.7334 19.493C14.9147 21.2618 12.4611 22.2425 9.91242 22.2195C7.3637 22.1965 4.92862 21.1716 3.14283 19.3703C1.35705 17.569 0.366871 15.1389 0.39011 12.6145C0.4342 10.9343 0.846865 9.28384 1.59948 7.77751C2.35209 6.27118 3.42662 4.94508 4.7485 3.89126Z" fill="url(#paint0_linear_372_10166)"/>
<g clip-path="url(#clip1_372_10166)">
<path d="M8.51067 6.15236C8.56907 5.53971 8.6867 4.93322 8.86212 4.34027C9.00416 3.90489 9.20794 3.48913 9.46804 3.10398C9.39935 3.47691 9.36486 3.85462 9.36501 4.23301C9.35119 4.82659 9.41223 5.41962 9.54682 5.99995C9.74071 5.99995 9.93461 5.99995 10.1527 5.99995C10.3709 5.99995 10.5466 5.99995 10.7587 6.03382C10.9019 5.45628 10.973 4.86527 10.9707 4.27253C10.9791 3.88541 10.9528 3.4983 10.892 3.11526C11.1534 3.50374 11.3573 3.92343 11.4979 4.36285C11.6641 4.95818 11.7696 5.56678 11.813 6.18058C12.1483 6.25032 12.4783 6.34085 12.8006 6.45155C13.1282 5.76367 13.186 4.99048 12.9642 4.26688C12.5522 2.83301 11.1828 1.94107 10.2557 1.93542H10.1952C9.26809 1.93542 7.87444 2.79349 7.43817 4.19349C7.20564 4.91661 7.24846 5.69238 7.55936 6.38947C7.86991 6.28917 8.18785 6.20992 8.51067 6.15236Z" fill="black"/>
</g>
<path d="M9.99439 20.3746C14.0155 20.3746 17.2753 17.1459 17.2753 13.1631C17.2753 9.18035 14.0155 5.95166 9.99439 5.95166C5.97323 5.95166 2.71344 9.18035 2.71344 13.1631C2.71344 17.1459 5.97323 20.3746 9.99439 20.3746Z" fill="white" fill-opacity="0.4"/>
<path d="M6.10515 4.23283C6.89814 4.23283 7.54099 3.59611 7.54099 2.81069C7.54099 2.02526 6.89814 1.38855 6.10515 1.38855C5.31216 1.38855 4.66931 2.02526 4.66931 2.81069C4.66931 3.59611 5.31216 4.23283 6.10515 4.23283Z" fill="white"/>
<path d="M6.04295 3.49937C6.50189 3.49937 6.87393 3.13088 6.87393 2.67632C6.87393 2.22176 6.50189 1.85327 6.04295 1.85327C5.58402 1.85327 5.21198 2.22176 5.21198 2.67632C5.21198 3.13088 5.58402 3.49937 6.04295 3.49937Z" fill="black"/>
<path d="M6.30298 2.61467C6.47469 2.61467 6.61389 2.47679 6.61389 2.30672C6.61389 2.13665 6.47469 1.99878 6.30298 1.99878C6.13126 1.99878 5.99207 2.13665 5.99207 2.30672C5.99207 2.47679 6.13126 2.61467 6.30298 2.61467Z" fill="white"/>
<path d="M14.6919 4.3112C15.4849 4.3112 16.1278 3.67448 16.1278 2.88906C16.1278 2.10363 15.4849 1.46692 14.6919 1.46692C13.899 1.46692 13.2561 2.10363 13.2561 2.88906C13.2561 3.67448 13.899 4.3112 14.6919 4.3112Z" fill="white"/>
<path d="M15.359 3.32578C15.4482 3.13719 15.4581 2.92123 15.3866 2.72541C15.315 2.52958 15.1678 2.36992 14.9774 2.28156C14.787 2.19321 14.569 2.1834 14.3713 2.25427C14.1736 2.32515 14.0124 2.47092 13.9232 2.6595" stroke="black" stroke-width="0.483871" stroke-linecap="round" stroke-linejoin="round"/>
</g>
<defs>
<linearGradient id="paint0_linear_372_10166" x1="19.8202" y1="11.8396" x2="0.589074" y2="11.6454" gradientUnits="userSpaceOnUse">
<stop stop-color="#AF4CFF"/>
<stop offset="0.12" stop-color="#A752FF"/>
<stop offset="0.3" stop-color="#9261FF"/>
<stop offset="0.52" stop-color="#707AFF"/>
<stop offset="0.76" stop-color="#409DFF"/>
<stop offset="1" stop-color="#0CC3FF"/>
</linearGradient>
<clipPath id="clip0_372_10166">
<rect width="20" height="22.5806" fill="white"/>
</clipPath>
<clipPath id="clip1_372_10166">
<rect width="6.18064" height="5.16129" fill="white" transform="translate(7.09674 1.29028)"/>
</clipPath>
</defs>
</svg>
