<svg width="23" height="26" viewBox="0 0 23 26" fill="none" xmlns="http://www.w3.org/2000/svg">
<g clip-path="url(#clip0_752_3427)">
<path d="M5.32136 4.66913C5.02899 4.32735 4.86511 3.89581 4.85757 3.44781C4.85063 2.98727 5.01148 2.53961 5.31063 2.18684C5.60979 1.83407 6.02723 1.59985 6.48644 1.52706C6.94566 1.45427 7.4159 1.54779 7.81101 1.79051C8.20612 2.03322 8.49963 2.40887 8.63777 2.84861C9.44992 2.58327 10.2983 2.44305 11.1534 2.43282C12.2484 2.40859 13.3379 2.59238 14.363 2.97425C14.4108 2.66353 14.535 2.36919 14.7247 2.11719C14.9144 1.86519 15.1638 1.66327 15.4509 1.52924C15.738 1.39522 16.0539 1.33319 16.3708 1.34865C16.6877 1.36412 16.9959 1.45659 17.2681 1.6179C17.5404 1.77922 17.7683 2.00443 17.9319 2.27366C18.0955 2.5429 18.1896 2.84789 18.2061 3.16174C18.2225 3.4756 18.1607 3.78867 18.0261 4.07335C17.8915 4.35802 17.6883 4.60555 17.4344 4.79411C18.7881 5.94841 19.8838 7.36982 20.6514 8.96751C21.4189 10.5652 21.8415 12.3041 21.8921 14.073C21.9311 16.8497 20.8548 19.5284 18.9 21.52C16.9453 23.5116 14.2722 24.6529 11.4687 24.6927C8.66532 24.7326 5.96125 23.6678 3.95136 21.7325C1.94148 19.7973 0.790443 17.1502 0.751456 14.3735C0.756987 12.5247 1.1686 10.6991 1.95774 9.02337C2.74687 7.34761 3.89463 5.86182 5.32136 4.66913Z" fill="white" fill-opacity="0.6"/>
<g clip-path="url(#clip1_752_3427)">
<path d="M9.51646 7.05951C9.56502 6.38429 9.67887 5.71432 9.85662 5.05777C10.0017 4.57535 10.2152 4.11292 10.4913 3.68272C10.4253 4.0946 10.3971 4.51085 10.4069 4.92696C10.4069 5.58007 10.4892 6.23067 10.652 6.86541C10.8652 6.86046 11.0785 6.8555 11.3184 6.84992C11.5582 6.84435 11.7515 6.83985 11.9856 6.87168C12.1283 6.2329 12.1914 5.58115 12.1737 4.92936C12.1731 4.50343 12.1342 4.07839 12.0575 3.65873C12.355 4.07925 12.5899 4.53557 12.7558 5.01521C12.9537 5.66564 13.0853 6.33222 13.1487 7.00612C13.5193 7.07424 13.8844 7.16536 14.2418 7.27886C14.5844 6.51401 14.6283 5.66225 14.3658 4.87218C13.8761 3.30588 12.3473 2.36003 11.3277 2.37752L11.2611 2.37907C10.2416 2.40277 8.73092 3.38202 8.28695 4.93276C8.04973 5.73392 8.11665 6.58594 8.47637 7.34458C8.81532 7.22635 9.16292 7.13107 9.51646 7.05951Z" fill="black"/>
</g>
<path d="M11.5116 22.6618C15.9337 22.559 19.436 18.9251 19.3341 14.5452C19.2323 10.1653 15.5649 6.69804 11.1429 6.80085C6.72079 6.90366 3.21853 10.5376 3.32036 14.9175C3.42219 19.2974 7.08954 22.7646 11.5116 22.6618Z" fill="white"/>
<path d="M6.822 5.01003C7.69406 4.98976 8.38472 4.27313 8.36464 3.40939C8.34456 2.54566 7.62134 1.8619 6.74928 1.88217C5.87723 1.90245 5.18657 2.61908 5.20665 3.48281C5.22673 4.34655 5.94995 5.03031 6.822 5.01003Z" fill="white"/>
<path d="M6.73485 4.20508C7.23954 4.19335 7.63925 3.7786 7.62763 3.27872C7.61601 2.77885 7.19745 2.38313 6.69276 2.39486C6.18807 2.4066 5.78835 2.82134 5.79997 3.32122C5.8116 3.82109 6.23015 4.21681 6.73485 4.20508Z" fill="black"/>
<path d="M6.99828 3.22547C7.18711 3.22107 7.33666 3.0659 7.33232 2.87887C7.32797 2.69184 7.17136 2.54378 6.98253 2.54817C6.7937 2.55256 6.64415 2.70774 6.6485 2.89477C6.65285 3.0818 6.80945 3.22986 6.99828 3.22547Z" fill="white"/>
<path d="M16.267 4.87673C17.139 4.85646 17.8297 4.13983 17.8096 3.27609C17.7895 2.41236 17.0663 1.7286 16.1942 1.74887C15.3222 1.76915 14.6315 2.48578 14.6516 3.34951C14.6717 4.21325 15.3949 4.89701 16.267 4.87673Z" fill="white"/>
<path d="M16.9751 3.77613C17.0684 3.56646 17.0738 3.32871 16.9901 3.11519C16.9064 2.90167 16.7405 2.72985 16.5288 2.63755C16.3172 2.54526 16.0772 2.54004 15.8616 2.62304C15.6459 2.70604 15.4724 2.87046 15.3791 3.08013" stroke="black" stroke-width="0.967742" stroke-linecap="round" stroke-linejoin="round"/>
</g>
<defs>
<clipPath id="clip0_752_3427">
<rect width="22" height="24.8387" fill="white" transform="translate(0 0.511353) rotate(-1.33184)"/>
</clipPath>
<clipPath id="clip1_752_3427">
<rect width="6.79871" height="5.67742" fill="white" transform="translate(7.83716 1.74881) rotate(-1.33184)"/>
</clipPath>
</defs>
</svg>
