<svg width="70" height="16" viewBox="0 0 70 16" fill="none" xmlns="http://www.w3.org/2000/svg">
<path d="M3.97418 8.64964H2.94659V13.3619C2.94659 13.9869 2.8104 14.4368 2.53803 14.7368C2.26565 15.0243 1.919 15.1743 1.4733 15.1743C1.00283 15.1743 0.643793 15.0243 0.3838 14.7118C0.123807 14.3993 0 13.9494 0 13.3619V2.07498C0 1.43751 0.13619 0.975038 0.420944 0.687553C0.705698 0.400067 1.16378 0.262573 1.79519 0.262573H6.58649C7.24266 0.262573 7.81217 0.287573 8.28263 0.35007C8.7531 0.412567 9.17404 0.52506 9.54545 0.700051C10.0035 0.887541 10.3997 1.17503 10.7588 1.52501C11.1054 1.88749 11.3778 2.29997 11.5511 2.77495C11.7368 3.24992 11.8235 3.76239 11.8235 4.28737C11.8235 5.38731 11.514 6.24977 10.9073 6.91223C10.3007 7.5622 9.37212 8.02467 8.12168 8.29966C8.64167 8.57465 9.13689 8.99963 9.61974 9.5371C10.0902 10.0871 10.5235 10.662 10.8949 11.287C11.2664 11.8995 11.5635 12.4619 11.7616 12.9619C11.9721 13.4619 12.0711 13.7994 12.0711 13.9869C12.0711 14.1744 12.0092 14.3743 11.8854 14.5618C11.7616 14.7493 11.6006 14.8993 11.3902 15.0118C11.1797 15.1243 10.9321 15.1743 10.6597 15.1743C10.3254 15.1743 10.0531 15.0993 9.83021 14.9368C9.60736 14.7743 9.40927 14.5868 9.24832 14.3369C9.08737 14.0994 8.86452 13.7369 8.59215 13.2744L7.41599 11.287C6.99505 10.562 6.61125 10.0121 6.27697 9.62459C5.9427 9.24961 5.60842 8.98713 5.26176 8.84963C4.92748 8.72464 4.49416 8.64964 3.97418 8.64964ZM5.65794 2.48746H2.94659V6.52475H5.58366C6.28935 6.52475 6.88362 6.46226 7.36646 6.33726C7.84931 6.21227 8.22073 5.99978 8.46834 5.71229C8.72834 5.41231 8.85214 5.01233 8.85214 4.48736C8.85214 4.07488 8.75309 3.7249 8.54262 3.41241C8.33215 3.09993 8.0474 2.87494 7.68836 2.71245C7.35408 2.56246 6.67315 2.48746 5.65794 2.48746Z" fill="white"/>
<path d="M21.0224 0C22.5328 0 23.8204 0.312483 24.9099 0.924952C25.987 1.53742 26.8041 2.42488 27.3613 3.56232C27.9184 4.69976 28.1908 6.03719 28.1908 7.57461C28.1908 8.71205 28.0422 9.737 27.7327 10.662C27.4232 11.5869 26.9775 12.3994 26.3584 13.0743C25.7518 13.7493 25.0089 14.2743 24.1175 14.6368C23.2261 14.9992 22.2233 15.1742 21.0719 15.1742C19.9329 15.1742 18.9177 14.9867 18.0139 14.6243C17.1101 14.2493 16.3673 13.7368 15.7606 13.0618C15.154 12.3869 14.7083 11.5744 14.3988 10.6245C14.0892 9.67451 13.9407 8.64956 13.9407 7.54961C13.9407 6.42467 14.1016 5.38722 14.4235 4.44977C14.7454 3.51232 15.2035 2.71236 15.8225 2.04989C16.4292 1.38743 17.172 0.887455 18.0387 0.537473C18.9053 0.187491 19.9081 0 21.0224 0ZM25.1947 7.54961C25.1947 6.47467 25.0213 5.54972 24.6747 4.76226C24.328 3.9748 23.8452 3.37483 23.2014 2.97485C22.5576 2.57487 21.8271 2.37488 21.01 2.37488C20.4157 2.37488 19.8834 2.48737 19.3758 2.71236C18.8805 2.93735 18.4472 3.26233 18.0882 3.68731C17.7291 4.11229 17.4444 4.66226 17.2339 5.32473C17.0234 5.98719 16.9244 6.73716 16.9244 7.56211C16.9244 8.39957 17.0234 9.14953 17.2339 9.8245C17.4444 10.4995 17.7415 11.0619 18.1129 11.4994C18.4967 11.9494 18.9301 12.2744 19.4253 12.4994C19.9205 12.7243 20.4529 12.8243 21.0471 12.8243C21.8024 12.8243 22.4957 12.6369 23.1271 12.2494C23.7585 11.8744 24.2661 11.2869 24.6375 10.487C25.0089 9.687 25.1947 8.71205 25.1947 7.54961Z" fill="white"/>
<path d="M41.7473 10.5245C41.7473 11.4119 41.5245 12.2119 41.0664 12.9118C40.6083 13.6243 39.9521 14.1743 39.0731 14.5743C38.1941 14.9742 37.1665 15.1742 35.9656 15.1742C34.5294 15.1742 33.3533 14.8992 32.4123 14.3493C31.7562 13.9618 31.2114 13.4243 30.8029 12.7743C30.3943 12.1119 30.1838 11.4744 30.1838 10.8619C30.1838 10.4995 30.3076 10.187 30.5553 9.93699C30.8029 9.67451 31.1248 9.54951 31.4962 9.54951C31.8057 9.54951 32.0657 9.64951 32.2885 9.8495C32.499 10.0495 32.6847 10.3495 32.8333 10.737C33.019 11.1994 33.2171 11.5994 33.4276 11.9119C33.638 12.2244 33.9475 12.4869 34.3313 12.6868C34.7151 12.8868 35.2351 12.9868 35.8665 12.9868C36.7332 12.9868 37.4513 12.7868 37.996 12.3744C38.5408 11.9619 38.8131 11.4494 38.8131 10.8369C38.8131 10.3495 38.6646 9.94949 38.3674 9.64951C38.0703 9.34952 37.6989 9.11203 37.2284 8.94954C36.7579 8.78705 36.1389 8.62456 35.3589 8.43707C34.319 8.18708 33.4399 7.8996 32.7342 7.57461C32.0286 7.24963 31.4714 6.79965 31.0629 6.22468C30.6543 5.64971 30.4438 4.94975 30.4438 4.09979C30.4438 3.28733 30.6667 2.57487 31.1 1.9499C31.5333 1.32493 32.1647 0.837457 32.9942 0.499974C33.8237 0.162492 34.7894 0 35.9037 0C36.7951 0 37.5627 0.112494 38.2189 0.337482C38.875 0.562471 39.4074 0.862456 39.8407 1.22494C40.274 1.59992 40.5836 1.9874 40.7816 2.38738C40.9797 2.79986 41.0788 3.18734 41.0788 3.57482C41.0788 3.9248 40.955 4.24978 40.7074 4.52477C40.4597 4.81225 40.1502 4.94975 39.7788 4.94975C39.4445 4.94975 39.1846 4.86225 39.0112 4.69976C38.8379 4.52477 38.6398 4.24978 38.4417 3.8623C38.1817 3.31233 37.8598 2.87485 37.4884 2.56237C37.117 2.24989 36.5227 2.09989 35.7056 2.09989C34.9504 2.09989 34.3313 2.26238 33.8609 2.59987C33.3904 2.93735 33.1676 3.33733 33.1676 3.81231C33.1676 4.09979 33.2418 4.36228 33.4028 4.57477C33.5637 4.78725 33.7742 4.97475 34.059 5.12474C34.3313 5.27473 34.6161 5.39972 34.9009 5.48722C35.1856 5.57471 35.6561 5.69971 36.3122 5.8622C37.1294 6.04969 37.8722 6.27468 38.5408 6.49967C39.2093 6.73716 39.7664 7.01214 40.2369 7.34963C40.7074 7.68711 41.0664 8.09959 41.3264 8.61206C41.6111 9.16203 41.7473 9.787 41.7473 10.5245Z" fill="white"/>
<path d="M53.8186 2.54988H47.1826V6.1497H53.2862C53.7319 6.1497 54.0662 6.24969 54.289 6.44968C54.5119 6.64967 54.6233 6.92466 54.6233 7.24964C54.6233 7.58712 54.5119 7.84961 54.3014 8.0621C54.0909 8.27459 53.7443 8.37458 53.2862 8.37458H47.1826V12.5494H54.0414C54.4995 12.5494 54.8585 12.6619 55.0814 12.8744C55.3166 13.0868 55.428 13.3743 55.428 13.7368C55.428 14.0868 55.3166 14.3618 55.0814 14.5868C54.8462 14.7993 54.4995 14.9117 54.0414 14.9117H46.0435C45.3997 14.9117 44.9417 14.7743 44.6569 14.4868C44.3722 14.1993 44.236 13.7368 44.236 13.0993V2.07491C44.236 1.64993 44.2979 1.29995 44.4217 1.02496C44.5455 0.749974 44.7436 0.562484 45.0159 0.43749C45.2883 0.312497 45.6226 0.25 46.0435 0.25H53.8186C54.289 0.25 54.6357 0.349995 54.8585 0.562484C55.0814 0.774973 55.2052 1.04996 55.2052 1.38744C55.2052 1.73742 55.0938 2.01241 54.8585 2.2249C54.6233 2.43739 54.289 2.54988 53.8186 2.54988Z" fill="white"/>
<path d="M61.6305 1.78736L67.2884 10.4369V1.71236C67.2884 1.14989 67.4123 0.724916 67.6475 0.437431C67.8827 0.149945 68.217 0.0124512 68.6256 0.0124512C69.0465 0.0124512 69.3808 0.149945 69.6284 0.437431C69.876 0.724916 69.9998 1.14989 69.9998 1.71236V13.2493C69.9998 14.5367 69.4674 15.1867 68.4151 15.1867C68.1551 15.1867 67.9075 15.1492 67.697 15.0742C67.4865 14.9992 67.2884 14.8742 67.1027 14.7117C66.917 14.5492 66.7437 14.3492 66.5828 14.1242C66.4218 13.8992 66.2609 13.6742 66.1123 13.4368L60.5905 4.8872V13.4868C60.5905 14.0492 60.4667 14.4742 60.2067 14.7617C59.9467 15.0492 59.6125 15.1867 59.2163 15.1867C58.7953 15.1867 58.4611 15.0367 58.2135 14.7492C57.9658 14.4617 57.842 14.0367 57.842 13.4868V2.16234C57.842 1.68737 57.8916 1.29989 58.003 1.0374C58.1268 0.737415 58.3373 0.487427 58.622 0.299937C58.9068 0.112446 59.2287 0.0124512 59.5629 0.0124512C59.8229 0.0124512 60.0582 0.0499493 60.2439 0.137445C60.4296 0.22494 60.6029 0.337435 60.7391 0.487427C60.8753 0.63742 61.0239 0.824911 61.1724 1.0624C61.3086 1.28739 61.4696 1.53737 61.6305 1.78736Z" fill="white"/>
</svg>
