<svg width="16" height="17" viewBox="0 0 16 17" fill="none" xmlns="http://www.w3.org/2000/svg">
<path d="M16 15.6087C13.8868 17.0528 10.9263 16.6113 9.39742 14.6153L7.07971 11.5984L10.9069 8.97693L16 15.6087Z" fill="url(#paint0_linear_367_8200)"/>
<path d="M0.282401 16.3813H0.214233V14.6889V11.7087C0.214233 11.4971 0.39926 11.3224 0.623241 11.3224H4.95678V11.9754C4.94704 14.4037 2.85331 16.3813 0.282401 16.3813Z" fill="url(#paint1_linear_367_8200)"/>
<path d="M8.76447 5.20557C8.8229 5.23316 8.91055 5.27915 8.99819 5.34354C9.27086 5.54589 9.52406 5.94141 9.45589 6.40132C9.39746 6.83362 9.0761 7.20155 8.62814 7.33952H4.46015C4.46015 7.33952 1.03228 7.46829 0.389552 10.3197C-0.253175 13.1711 0.993325 15.3602 0.993325 15.3602C0.993325 15.3602 1.11018 14.0909 1.5971 13.4286C1.99637 12.8676 2.46381 12.4077 3.11627 12.0765C3.56423 11.8466 4.23617 11.6626 4.79125 11.6442L9.58249 11.5706C10.1668 11.5614 10.7511 11.4695 11.3159 11.3039C12.0268 11.0923 12.8935 10.7428 13.3804 10.2553C14.2569 9.37229 14.0231 6.68646 14.0231 6.68646L11.8418 5.38033L8.76447 5.20557Z" fill="url(#paint2_linear_367_8200)"/>
<path d="M8.99817 5.34366C8.99817 5.34366 10.6147 5.21488 11.8417 5.94153C13.0688 6.66818 13.7018 7.94671 13.2927 9.18845C12.8935 10.4302 12.5234 10.8533 12.5234 10.8533C12.5234 10.8533 13.0201 9.46439 12.7961 8.53539C12.5526 7.5328 11.8807 6.74176 11.1211 6.24507C10.3518 5.74837 9.8454 5.51842 8.99817 5.34366Z" fill="url(#paint3_linear_367_8200)"/>
<path d="M14.8509 5.18725C14.14 0.937744 8.51126 0.937744 8.51126 0.937744H0C0 3.36603 2.08399 5.32522 4.64516 5.32522H8.50152C8.66707 5.32522 8.83262 5.32522 8.98843 5.33442C10.42 5.38961 11.7833 5.73914 12.7474 7.25682C13.692 8.7561 12.5137 10.8349 12.5137 10.8349C12.5137 10.8349 15.5812 9.53794 14.8509 5.18725Z" fill="url(#paint4_linear_367_8200)"/>
<defs>
<linearGradient id="paint0_linear_367_8200" x1="13.8483" y1="16.5825" x2="10.1661" y2="11.218" gradientUnits="userSpaceOnUse">
<stop stop-color="#00D1FF"/>
<stop offset="0.9645" stop-color="#572AD3"/>
</linearGradient>
<linearGradient id="paint1_linear_367_8200" x1="0.206443" y1="13.85" x2="4.94412" y2="13.85" gradientUnits="userSpaceOnUse">
<stop stop-color="#C567FF"/>
<stop offset="0.1898" stop-color="#C365FF"/>
<stop offset="0.9161" stop-color="#7906FF"/>
</linearGradient>
<linearGradient id="paint2_linear_367_8200" x1="0.2069" y1="10.2857" x2="14.0447" y2="10.2857" gradientUnits="userSpaceOnUse">
<stop stop-color="#C567FF"/>
<stop offset="0.3518" stop-color="#C365FF"/>
<stop offset="0.9161" stop-color="#7906FF"/>
</linearGradient>
<linearGradient id="paint3_linear_367_8200" x1="10.3201" y1="8.29501" x2="14.2029" y2="6.29999" gradientUnits="userSpaceOnUse">
<stop offset="0.1541" stop-color="#7906FF" stop-opacity="0"/>
<stop offset="0.8171" stop-color="#231815"/>
</linearGradient>
<linearGradient id="paint4_linear_367_8200" x1="0.00292148" y1="5.89504" x2="14.9635" y2="5.89504" gradientUnits="userSpaceOnUse">
<stop stop-color="#00D1FF"/>
<stop offset="0.2368" stop-color="#00CFFF"/>
<stop offset="0.7687" stop-color="#7857FF"/>
</linearGradient>
</defs>
</svg>
