<svg width="18" height="19" viewBox="0 0 18 19" fill="none" xmlns="http://www.w3.org/2000/svg">
<g clip-path="url(#clip0_731_1905)">
<g filter="url(#filter0_d_731_1905)">
<path d="M9.07365 0.912003C13.8882 0.912003 17.7902 4.81404 17.7902 9.6286C17.7902 14.4432 13.8882 18.3452 9.07365 18.3452C4.25909 18.3452 0.357056 14.4432 0.357056 9.6286C0.357056 4.81404 4.2608 0.912003 9.07365 0.912003Z" fill="white"/>
</g>
<path d="M14 13.9177C12.7982 14.7955 11.1147 14.5271 10.2453 13.3139L8.92725 11.48L11.1036 9.88657L14 13.9177Z" fill="url(#paint0_linear_731_1905)"/>
<path d="M5.06184 14.3873H5.02307V13.3586V11.5471C5.02307 11.4185 5.12829 11.3123 5.25566 11.3123H7.72004V11.7092C7.7145 13.1853 6.52385 14.3873 5.06184 14.3873Z" fill="url(#paint1_linear_731_1905)"/>
<path d="M9.88549 7.59424C9.91872 7.61101 9.96856 7.63897 10.0184 7.6781C10.1735 7.80111 10.3175 8.04152 10.2787 8.32107C10.2455 8.58385 10.0627 8.80749 9.80796 8.89136H7.43773C7.43773 8.89136 5.48839 8.96963 5.12289 10.7029C4.75738 12.4361 5.46624 13.7667 5.46624 13.7667C5.46624 13.7667 5.53269 12.9952 5.80959 12.5926C6.03664 12.2516 6.30246 11.972 6.6735 11.7707C6.92825 11.631 7.31036 11.5191 7.62602 11.508L10.3507 11.4632C10.683 11.4576 11.0152 11.4017 11.3364 11.3011C11.7407 11.1725 12.2336 10.96 12.5105 10.6637C13.0089 10.127 12.876 8.49439 12.876 8.49439L11.6355 7.70047L9.88549 7.59424Z" fill="url(#paint2_linear_731_1905)"/>
<path d="M10.0183 7.67811C10.0183 7.67811 10.9376 7.59984 11.6354 8.04153C12.3332 8.48322 12.6931 9.26037 12.4605 10.0152C12.2335 10.77 12.023 11.0271 12.023 11.0271C12.023 11.0271 12.3055 10.1829 12.1781 9.6182C12.0396 9.00878 11.6575 8.52795 11.2256 8.22603C10.7881 7.92412 10.5001 7.78434 10.0183 7.67811Z" fill="url(#paint3_linear_731_1905)"/>
<path d="M13.3466 7.58306C12.9423 5 9.74138 5 9.74138 5H4.90125C4.90125 6.47603 6.08636 7.66692 7.54283 7.66692H9.73584C9.82999 7.66692 9.92413 7.66692 10.0127 7.67251C10.8268 7.70606 11.6021 7.91852 12.1504 8.84104C12.6876 9.75238 12.0175 11.0159 12.0175 11.0159C12.0175 11.0159 13.7619 10.2276 13.3466 7.58306Z" fill="url(#paint4_linear_731_1905)"/>
</g>
<defs>
<filter id="filter0_d_731_1905" x="-9.64294" y="-5.088" width="37.4332" height="37.4332" filterUnits="userSpaceOnUse" color-interpolation-filters="sRGB">
<feFlood flood-opacity="0" result="BackgroundImageFix"/>
<feColorMatrix in="SourceAlpha" type="matrix" values="0 0 0 0 0 0 0 0 0 0 0 0 0 0 0 0 0 0 127 0" result="hardAlpha"/>
<feOffset dy="4"/>
<feGaussianBlur stdDeviation="5"/>
<feComposite in2="hardAlpha" operator="out"/>
<feColorMatrix type="matrix" values="0 0 0 0 0 0 0 0 0 0 0 0 0 0 0 0 0 0 0.25 0"/>
<feBlend mode="normal" in2="BackgroundImageFix" result="effect1_dropShadow_731_1905"/>
<feBlend mode="normal" in="SourceGraphic" in2="effect1_dropShadow_731_1905" result="shape"/>
</filter>
<linearGradient id="paint0_linear_731_1905" x1="12.7764" y1="14.5096" x2="10.4884" y2="11.3911" gradientUnits="userSpaceOnUse">
<stop stop-color="#00D1FF"/>
<stop offset="0.9645" stop-color="#572AD3"/>
</linearGradient>
<linearGradient id="paint1_linear_731_1905" x1="5.01864" y1="12.8487" x2="7.71284" y2="12.8487" gradientUnits="userSpaceOnUse">
<stop stop-color="#C567FF"/>
<stop offset="0.1898" stop-color="#C365FF"/>
<stop offset="0.9161" stop-color="#7906FF"/>
</linearGradient>
<linearGradient id="paint2_linear_731_1905" x1="5.01902" y1="10.6822" x2="12.8882" y2="10.6822" gradientUnits="userSpaceOnUse">
<stop stop-color="#C567FF"/>
<stop offset="0.3518" stop-color="#C365FF"/>
<stop offset="0.9161" stop-color="#7906FF"/>
</linearGradient>
<linearGradient id="paint3_linear_731_1905" x1="10.77" y1="9.47209" x2="13.0372" y2="8.38229" gradientUnits="userSpaceOnUse">
<stop offset="0.1541" stop-color="#7906FF" stop-opacity="0"/>
<stop offset="0.8171" stop-color="#231815"/>
</linearGradient>
<linearGradient id="paint4_linear_731_1905" x1="4.90291" y1="8.01329" x2="13.4106" y2="8.01329" gradientUnits="userSpaceOnUse">
<stop stop-color="#00D1FF"/>
<stop offset="0.2368" stop-color="#00CFFF"/>
<stop offset="0.7687" stop-color="#7857FF"/>
</linearGradient>
<clipPath id="clip0_731_1905">
<rect width="17.44" height="17.44" fill="white" transform="translate(0.352051 0.912003)"/>
</clipPath>
</defs>
</svg>
