<svg width="20" height="20" viewBox="0 0 20 20" fill="none" xmlns="http://www.w3.org/2000/svg">
<path d="M9.00003 0C10.6948 3.84149e-06 12.355 0.478506 13.7898 1.38044C15.2246 2.28238 16.3756 3.57109 17.1103 5.09828C17.845 6.62547 18.1336 8.32906 17.9428 10.013C17.7521 11.697 17.0897 13.2929 16.032 14.617L19.297 17.883C19.3925 17.9752 19.4687 18.0856 19.5211 18.2076C19.5735 18.3296 19.6011 18.4608 19.6023 18.5936C19.6034 18.7264 19.5781 18.8581 19.5278 18.981C19.4776 19.1039 19.4033 19.2155 19.3094 19.3094C19.2155 19.4033 19.1039 19.4775 18.981 19.5278C18.8581 19.5781 18.7264 19.6034 18.5936 19.6023C18.4608 19.6011 18.3296 19.5735 18.2076 19.5211C18.0856 19.4687 17.9753 19.3925 17.883 19.297L14.617 16.032C13.4937 16.9293 12.1718 17.5444 10.762 17.8258C9.35213 18.1073 7.89537 18.0469 6.51366 17.6497C5.13194 17.2526 3.86547 16.5302 2.82029 15.543C1.7751 14.5559 0.981606 13.3327 0.506235 11.9759C0.0308636 10.6191 -0.112551 9.16815 0.0879973 7.74454C0.288545 6.32093 0.82722 4.96608 1.65893 3.79341C2.49063 2.62074 3.59116 1.66438 4.86839 1.00439C6.14561 0.344404 7.56236 -4.07967e-06 9.00003 0ZM9.00003 2C8.08074 1.99995 7.17044 2.18097 6.32112 2.53273C5.47179 2.88449 4.70007 3.40009 4.05002 4.05011C3.39996 4.70012 2.88431 5.47182 2.5325 6.32112C2.1807 7.17043 1.99962 8.08071 1.99962 9C1.99962 9.91929 2.1807 10.8296 2.5325 11.6789C2.88431 12.5282 3.39996 13.2999 4.05002 13.9499C4.70007 14.5999 5.47179 15.1155 6.32112 15.4673C7.17044 15.819 8.08074 16.0001 9.00003 16C10.8565 15.9999 12.6368 15.2623 13.9495 13.9496C15.2622 12.6369 15.9996 10.8564 15.9996 9C15.9996 7.14355 15.2622 5.36314 13.9495 4.0504C12.6368 2.73765 10.8565 2.00011 9.00003 2Z"/>
</svg>
