<svg width="16" height="14" viewBox="0 0 16 14" fill="none" xmlns="http://www.w3.org/2000/svg">
<path d="M5.52772 8.09877L10.5981 3.8625L3.89462 6.8503L0.208737 4.0325C0.127775 3.97065 0.0663073 3.88681 0.0316604 3.791C-0.00298661 3.69519 -0.00935093 3.59143 0.013326 3.4921C0.0360029 3.39277 0.0867644 3.30205 0.15956 3.23077C0.232355 3.15948 0.324114 3.11063 0.423898 3.09004L15.3619 0.0108588C15.4494 -0.00710742 15.54 -0.0027249 15.6253 0.0236009C15.7107 0.0499267 15.788 0.0973462 15.8502 0.161475C15.9123 0.225604 15.9573 0.304372 15.981 0.390497C16.0047 0.476621 16.0062 0.567323 15.9856 0.654215L13.0583 12.9157C13.0378 13.0018 12.9961 13.0815 12.937 13.1474C12.8779 13.2133 12.8032 13.2634 12.7198 13.2931C12.6364 13.3228 12.5469 13.3312 12.4594 13.3176C12.372 13.3039 12.2893 13.2686 12.2189 13.2148L5.52772 8.09877ZM4.13581 12.3329L4.8663 8.91372L7.72979 11.1243L4.93908 12.8923C4.8507 12.9483 4.74775 12.977 4.64315 12.9747C4.53855 12.9724 4.43696 12.9393 4.35111 12.8794C4.26527 12.8196 4.19899 12.7358 4.16059 12.6385C4.1222 12.5412 4.11339 12.4347 4.13528 12.3324L4.13581 12.3329Z" fill="white"/>
</svg>
