<svg width="20" height="20" viewBox="0 0 20 20" fill="none" xmlns="http://www.w3.org/2000/svg">
<path d="M16.9375 8.08337C15.5142 8.08337 14.13 7.61671 12.9917 6.75254V12.7775C12.9917 15.8542 10.6433 18.3459 7.74583 18.3459C4.84833 18.3459 2.5 15.8542 2.5 12.7775C2.5 9.70087 4.84833 7.20837 7.74583 7.20837C8.03583 7.20837 8.31667 7.23337 8.59083 7.28171V10.4734C8.32887 10.369 8.04949 10.3153 7.7675 10.315C6.475 10.315 5.42583 11.4275 5.42583 12.8009C5.42583 14.1717 6.475 15.285 7.7675 15.285C9.05917 15.285 10.1075 14.1717 10.1075 12.8009V0.833374H13.0333C13.0333 3.13337 14.7908 4.99754 16.9583 4.99754V8.08087L16.9375 8.08254" fill="#03FBFF"/>
<path d="M17.48 8.90334C16.0545 8.90284 14.6684 8.43572 13.5333 7.57334V13.5983C13.5333 16.675 11.185 19.1667 8.28748 19.1667C5.39081 19.1667 3.04248 16.675 3.04248 13.5983C3.04248 10.5217 5.39081 8.03001 8.28748 8.03001C8.57748 8.03001 8.85915 8.05501 9.13331 8.10334V11.295C8.87134 11.1907 8.59196 11.1369 8.30998 11.1367C7.01748 11.1367 5.96831 12.2492 5.96831 13.6225C5.96831 14.9942 7.01748 16.1075 8.30998 16.1075C9.60165 16.1075 10.65 14.9942 10.65 13.6225V1.65417H13.5758C13.5758 3.95417 15.3333 5.81834 17.5008 5.81834V8.90167L17.48 8.90334Z" fill="#FD1753"/>
</svg>
