<svg width="20" height="20" viewBox="0 0 20 20" fill="none" xmlns="http://www.w3.org/2000/svg">
<path d="M9.99943 5.83367C7.70058 5.83367 5.84523 7.68902 5.84523 9.98793C5.84523 12.2868 7.70058 14.1421 9.99943 14.1421C12.2984 14.1421 14.1536 12.2868 14.1536 9.98793C14.1536 7.68902 12.2983 5.83367 9.99943 5.83367ZM9.99943 12.6878C8.51275 12.6878 7.29948 11.4746 7.29948 9.98795C7.29948 8.50125 8.51273 7.28801 9.99943 7.28801C11.4861 7.28801 12.6994 8.50125 12.6994 9.98795C12.6994 11.4746 11.4861 12.6878 9.99943 12.6878ZM14.3237 4.69537C13.787 4.69537 13.3536 5.12885 13.3536 5.66562C13.3536 6.20234 13.787 6.63578 14.3237 6.63578C14.8605 6.63578 15.294 6.20439 15.294 5.66562C15.2941 5.53817 15.2691 5.41194 15.2204 5.29415C15.1717 5.17637 15.1003 5.06935 15.0101 4.97922C14.92 4.8891 14.813 4.81765 14.6952 4.76894C14.5774 4.72024 14.4512 4.69524 14.3237 4.69537ZM18.0972 9.98795C18.0972 8.86992 18.1073 7.76197 18.0445 6.64592C17.9817 5.34969 17.686 4.1992 16.7381 3.25127C15.7882 2.30135 14.6398 2.00763 13.3434 1.9449C12.2254 1.88207 11.1175 1.8922 10.0015 1.8922C8.88345 1.8922 7.77552 1.88209 6.65947 1.9449C5.36325 2.00763 4.21275 2.30334 3.26482 3.25127C2.3149 4.20119 2.0212 5.34969 1.95845 6.64592C1.89562 7.76398 1.90575 8.87189 1.90575 9.98795C1.90575 11.1039 1.89564 12.2138 1.95845 13.3299C2.02118 14.6262 2.31689 15.7766 3.26482 16.7246C4.21474 17.6745 5.36325 17.9682 6.65947 18.031C7.77753 18.0937 8.88546 18.0836 10.0015 18.0836C11.1196 18.0836 12.2274 18.0937 13.3434 18.031C14.6398 17.9682 15.7902 17.6725 16.7381 16.7246C17.688 15.7746 17.9817 14.6262 18.0445 13.3299C18.1094 12.2138 18.0972 11.106 18.0972 9.98795ZM16.3148 14.7639C16.1669 15.1325 15.9887 15.408 15.7031 15.6916C15.4175 15.9771 15.1441 16.1554 14.7755 16.3033C13.71 16.7265 11.1803 16.6313 9.99943 16.6313C8.81862 16.6313 6.28683 16.7265 5.2214 16.3053C4.85277 16.1574 4.57732 15.9792 4.29372 15.6936C4.00816 15.408 3.8299 15.1346 3.68208 14.766C3.26074 13.6985 3.35591 11.1687 3.35591 9.98795C3.35591 8.80709 3.26072 6.27529 3.68208 5.20994C3.8299 4.84129 4.00816 4.56584 4.29372 4.28226C4.57939 3.99869 4.85277 3.81842 5.2214 3.67053C6.28685 3.24928 8.81864 3.34447 9.99943 3.34447C11.1803 3.34447 13.7121 3.24928 14.7775 3.67053C15.1461 3.81842 15.4215 3.9966 15.7051 4.28226C15.9907 4.56783 16.169 4.84129 16.3168 5.20994C16.7381 6.27529 16.6429 8.80709 16.6429 9.98795C16.6429 11.1687 16.7381 13.6985 16.3148 14.7639Z" fill="url(#paint0_linear_367_8219)"/>
<defs>
<linearGradient id="paint0_linear_367_8219" x1="7.99997" y1="1.90004" x2="1.89997" y2="18.1" gradientUnits="userSpaceOnUse">
<stop stop-color="#1930E2"/>
<stop offset="0.552083" stop-color="#B34C4C"/>
<stop offset="1" stop-color="#F9E959"/>
</linearGradient>
</defs>
</svg>
