<svg width="20" height="20" viewBox="0 0 20 20" fill="none" xmlns="http://www.w3.org/2000/svg">
<path d="M5.76563 6.60155C8.11328 7.79296 10.0957 7.72265 10.0957 7.72265C10.0957 7.72265 9.34375 5.08983 11.668 3.92186C13.9922 2.7539 15.5918 4.72265 15.5918 4.72265C15.5918 4.72265 15.998 4.61132 16.2988 4.49999C16.6016 4.38866 17.0371 4.18944 17.0371 4.18944L16.3203 5.4746L17.4238 5.35741C17.4238 5.35741 17.2871 5.55663 16.8457 5.96288C16.4043 6.36913 16.2227 6.58007 16.2227 6.58007C16.2227 6.58007 16.3809 9.74999 14.7188 12.1894C13.0566 14.6289 10.9102 16.0937 7.79102 16.4023C4.67188 16.7109 2.64063 15.4414 2.64063 15.4414C2.64063 15.4414 4.00391 15.3633 4.87305 15.0293C5.74219 14.6953 6.99219 13.8164 6.99219 13.8164C6.99219 13.8164 5.21484 13.2676 4.57617 12.6484C3.9375 12.0312 3.7793 11.6641 3.7793 11.6641L5.5332 11.6406C5.5332 11.6406 3.6875 10.6562 3.16406 9.87694C2.64063 9.09765 2.57227 8.34374 2.57227 8.34374L3.92188 8.89061C3.92188 8.89061 2.80078 7.35936 2.64063 6.16796C2.48047 4.97655 2.8457 4.33593 2.8457 4.33593C2.8457 4.33593 3.41797 5.41015 5.76563 6.60155Z" fill="#1DA2F3"/>
</svg>
