<svg width="16" height="13" viewBox="0 0 16 13" fill="none" xmlns="http://www.w3.org/2000/svg">
<path d="M13.0682 12.6316C13.1814 12.6321 13.2936 12.6102 13.3982 12.5672C13.5029 12.5241 13.5979 12.4607 13.6779 12.3807L15.7453 10.3217C16.083 9.98487 16.0851 9.4375 15.7504 9.09813C15.6709 9.01755 15.5763 8.95346 15.472 8.90957C15.3677 8.86568 15.2557 8.84284 15.1426 8.84237C15.0294 8.8419 14.9173 8.86381 14.8126 8.90683C14.7079 8.94986 14.6128 9.01315 14.5327 9.09308L13.8948 9.72803V0.842108C13.8948 0.629654 13.8146 0.425026 13.6701 0.269244C13.5257 0.113462 13.3277 0.0180394 13.1158 0.00210537L13.0527 0C12.8293 0 12.6151 0.0887219 12.4572 0.246648C12.2993 0.404574 12.2106 0.618767 12.2106 0.842108V11.7895C12.2106 11.9008 12.2326 12.011 12.2755 12.1137C12.3183 12.2164 12.3811 12.3097 12.4602 12.388C12.5393 12.4663 12.6331 12.5281 12.7362 12.5699C12.8394 12.6118 12.9498 12.6327 13.0611 12.6316H13.0682ZM10.1053 2.3158C10.3286 2.3158 10.5428 2.22707 10.7008 2.06915C10.8587 1.91122 10.9474 1.69703 10.9474 1.47369C10.9474 1.25035 10.8587 1.03615 10.7008 0.878228C10.5428 0.720303 10.3286 0.631581 10.1053 0.631581H0.842108C0.618767 0.631581 0.404574 0.720303 0.246648 0.878228C0.0887218 1.03615 3.1371e-08 1.25035 3.1371e-08 1.47369C3.1371e-08 1.69703 0.0887218 1.91122 0.246648 2.06915C0.404574 2.22707 0.618767 2.3158 0.842108 2.3158H10.1053ZM10.1053 7.36844C10.3286 7.36844 10.5428 7.27972 10.7008 7.12179C10.8587 6.96387 10.9474 6.74968 10.9474 6.52633C10.9474 6.30299 10.8587 6.0888 10.7008 5.93087C10.5428 5.77295 10.3286 5.68423 10.1053 5.68423H0.842108C0.618767 5.68423 0.404574 5.77295 0.246648 5.93087C0.0887218 6.0888 3.1371e-08 6.30299 3.1371e-08 6.52633C3.1371e-08 6.74968 0.0887218 6.96387 0.246648 7.12179C0.404574 7.27972 0.618767 7.36844 0.842108 7.36844H10.1053ZM10.1053 12.4211C10.2159 12.4211 10.3254 12.3993 10.4276 12.357C10.5297 12.3147 10.6226 12.2526 10.7008 12.1744C10.7789 12.0962 10.841 12.0034 10.8833 11.9012C10.9256 11.7991 10.9474 11.6896 10.9474 11.579C10.9474 11.4684 10.9256 11.3589 10.8833 11.2567C10.841 11.1546 10.7789 11.0617 10.7008 10.9835C10.6226 10.9053 10.5297 10.8433 10.4276 10.801C10.3254 10.7587 10.2159 10.7369 10.1053 10.7369H0.842108C0.731521 10.7369 0.622016 10.7587 0.519847 10.801C0.417678 10.8433 0.324845 10.9053 0.246648 10.9835C0.168451 11.0617 0.106421 11.1546 0.0641016 11.2567C0.0217817 11.3589 0 11.4684 0 11.579C0 11.6896 0.0217817 11.7991 0.0641016 11.9012C0.106421 12.0034 0.168451 12.0962 0.246648 12.1744C0.324845 12.2526 0.417678 12.3147 0.519847 12.357C0.622016 12.3993 0.731521 12.4211 0.842108 12.4211H10.1053Z"/>
</svg>
