<svg width="16" height="13" viewBox="0 0 16 13" fill="none" xmlns="http://www.w3.org/2000/svg">
<path d="M13.0682 3.8147e-05C13.1814 -0.000489235 13.2936 0.0214167 13.3982 0.0644903C13.5029 0.107563 13.5979 0.170951 13.6779 0.250986L15.7453 2.30994C16.083 2.64678 16.0851 3.19415 15.7504 3.53352C15.6709 3.61411 15.5763 3.67819 15.472 3.72208C15.3677 3.76598 15.2557 3.78882 15.1426 3.78929C15.0294 3.78975 14.9173 3.76785 14.8126 3.72482C14.7079 3.68179 14.6128 3.6185 14.5327 3.53857L13.8948 2.90362V11.7895C13.8948 12.002 13.8146 12.2066 13.6701 12.3624C13.5257 12.5182 13.3277 12.6136 13.1158 12.6295L13.0527 12.6317C12.8293 12.6317 12.6151 12.5429 12.4572 12.385C12.2993 12.2271 12.2106 12.0129 12.2106 11.7895V0.842146C12.2106 0.730846 12.2326 0.620649 12.2755 0.517927C12.3183 0.415206 12.3811 0.321996 12.4602 0.243688C12.5393 0.16538 12.6331 0.103528 12.7362 0.0617065C12.8394 0.0198851 12.9498 -0.00107574 13.0611 3.8147e-05H13.0682ZM10.1053 10.3159C10.3286 10.3159 10.5428 10.4046 10.7008 10.5625C10.8587 10.7204 10.9474 10.9346 10.9474 11.158C10.9474 11.3813 10.8587 11.5955 10.7008 11.7534C10.5428 11.9114 10.3286 12.0001 10.1053 12.0001H0.842108C0.618767 12.0001 0.404574 11.9114 0.246648 11.7534C0.0887218 11.5955 3.1371e-08 11.3813 3.1371e-08 11.158C3.1371e-08 10.9346 0.0887218 10.7204 0.246648 10.5625C0.404574 10.4046 0.618767 10.3159 0.842108 10.3159H10.1053ZM10.1053 5.26321C10.3286 5.26321 10.5428 5.35193 10.7008 5.50986C10.8587 5.66778 10.9474 5.88198 10.9474 6.10532C10.9474 6.32866 10.8587 6.54285 10.7008 6.70078C10.5428 6.8587 10.3286 6.94743 10.1053 6.94743H0.842108C0.618767 6.94743 0.404574 6.8587 0.246648 6.70078C0.0887218 6.54285 3.1371e-08 6.32866 3.1371e-08 6.10532C3.1371e-08 5.88198 0.0887218 5.66778 0.246648 5.50986C0.404574 5.35193 0.618767 5.26321 0.842108 5.26321H10.1053ZM10.1053 0.210565C10.2159 0.210565 10.3254 0.232347 10.4276 0.274667C10.5297 0.316986 10.6226 0.379016 10.7008 0.457212C10.7789 0.535409 10.841 0.628242 10.8833 0.730412C10.9256 0.832581 10.9474 0.942085 10.9474 1.05267C10.9474 1.16326 10.9256 1.27276 10.8833 1.37493C10.841 1.4771 10.7789 1.56993 10.7008 1.64813C10.6226 1.72633 10.5297 1.78836 10.4276 1.83068C10.3254 1.873 10.2159 1.89478 10.1053 1.89478H0.842108C0.731521 1.89478 0.622016 1.873 0.519847 1.83068C0.417678 1.78836 0.324845 1.72633 0.246648 1.64813C0.168451 1.56993 0.106421 1.4771 0.0641016 1.37493C0.0217817 1.27276 0 1.16326 0 1.05267C0 0.942085 0.0217817 0.832581 0.0641016 0.730412C0.106421 0.628242 0.168451 0.535409 0.246648 0.457212C0.324845 0.379016 0.417678 0.316986 0.519847 0.274667C0.622016 0.232347 0.731521 0.210565 0.842108 0.210565H10.1053Z"/>
</svg>
