<svg width="20" height="20" viewBox="0 0 20 20" fill="none" xmlns="http://www.w3.org/2000/svg">
<g clip-path="url(#clip0_644_1130)">
<path d="M10.0091 0.00227356C4.50414 0.00227356 0.0236816 4.48227 0.0236816 9.98773C0.0236816 15.4932 4.50368 19.9736 10.0091 19.9736C15.5146 19.9736 19.995 15.4936 19.995 9.98773C19.9946 4.48227 15.5146 0.00227356 10.0091 0.00227356ZM15.5969 8.07318L9.10186 14.7309C9.0248 14.8095 8.93287 14.872 8.83142 14.9148C8.72998 14.9576 8.62104 14.9797 8.51095 14.98H8.50641C8.28593 14.9802 8.07437 14.8929 7.91823 14.7373L4.42777 11.2445C4.35041 11.1673 4.28903 11.0756 4.24716 10.9746C4.20528 10.8737 4.18373 10.7654 4.18373 10.6561C4.18373 10.5468 4.20528 10.4386 4.24716 10.3376C4.28903 10.2367 4.35041 10.1449 4.42777 10.0677C4.50499 9.99037 4.59671 9.92899 4.69768 9.88711C4.79864 9.84524 4.90688 9.82368 5.01618 9.82368C5.12549 9.82368 5.23372 9.84524 5.33469 9.88711C5.43565 9.92899 5.52737 9.99037 5.60459 10.0677L8.50232 12.9632L14.4069 6.90727C14.5613 6.74976 14.7719 6.65988 14.9925 6.65732C15.213 6.65477 15.4256 6.73975 15.5837 6.89364C15.7413 7.0486 15.8312 7.25966 15.8336 7.48069C15.8361 7.70172 15.751 7.91473 15.5969 8.07318Z" fill="white"/>
</g>
<defs>
<clipPath id="clip0_644_1130">
<rect width="20" height="20" fill="white"/>
</clipPath>
</defs>
</svg>
