<svg width="14" height="14" viewBox="0 0 14 14" fill="none" xmlns="http://www.w3.org/2000/svg">
<g clip-path="url(#clip0_1333_212)">
<path d="M10.9867 3.03116C10.9785 3.00108 10.9785 2.971 10.9648 2.94093L10.6845 2.33936C10.3988 1.72823 9.89158 1.26339 9.2531 1.03097C8.61599 0.799911 7.9283 0.828622 7.3158 1.113L3.9238 2.6962C3.79529 2.75636 3.70505 2.863 3.6613 2.98604H3.45212C2.05486 2.98604 0.917358 4.12354 0.917358 5.52081V10.589C0.917358 11.9862 2.05486 13.1237 3.45212 13.1237H10.5478C11.9451 13.1237 13.0826 11.9862 13.0826 10.589V5.51944C13.0812 4.27393 12.1748 3.24034 10.9867 3.03116V3.03116ZM7.74509 2.03311C8.1115 1.86222 8.52302 1.84581 8.9072 1.98526C9.29002 2.12472 9.5949 2.40362 9.7658 2.76866L9.86697 2.98604H5.70115L7.74509 2.03311ZM12.0681 9.57589H9.88064C9.04255 9.57589 8.36033 8.89366 8.36033 8.05558C8.36033 7.21749 9.04255 6.53526 9.88064 6.53526H12.0681V9.57589V9.57589ZM9.88064 5.52081C8.48338 5.52081 7.34587 6.65831 7.34587 8.05558C7.34587 9.45284 8.48338 10.5903 9.88064 10.5903H12.0681C12.0681 11.4284 11.3859 12.1107 10.5478 12.1107H3.45212C2.61404 12.1107 1.93181 11.4284 1.93181 10.5903V5.52081C1.93181 4.68272 2.61404 4.0005 3.45212 4.0005H10.5478C11.3859 4.0005 12.0681 4.68272 12.0681 5.52081H9.88064V5.52081Z" fill="white"/>
<path d="M8.98511 8.05557C8.98511 8.32425 9.09184 8.58194 9.28183 8.77193C9.47182 8.96192 9.72951 9.06865 9.99819 9.06865C10.2669 9.06865 10.5246 8.96192 10.7146 8.77193C10.9045 8.58194 11.0113 8.32425 11.0113 8.05557C11.0113 7.78688 10.9045 7.5292 10.7146 7.33921C10.5246 7.14922 10.2669 7.04248 9.99819 7.04248C9.72951 7.04248 9.47182 7.14922 9.28183 7.33921C9.09184 7.5292 8.98511 7.78688 8.98511 8.05557Z" fill="white"/>
</g>
<defs>
<clipPath id="clip0_1333_212">
<rect width="14" height="14" fill="white"/>
</clipPath>
</defs>
</svg>
