<svg width="14" height="14" viewBox="0 0 14 14" fill="none" xmlns="http://www.w3.org/2000/svg">
<path d="M11.2191 11.0838H8.1316C8.06089 11.0838 7.99087 11.0698 7.92554 11.0428C7.86021 11.0157 7.80085 10.976 7.75085 10.926C7.70085 10.876 7.66119 10.8167 7.63413 10.7514C7.60707 10.686 7.59314 10.616 7.59314 10.5453C7.59314 10.4746 7.60707 10.4046 7.63413 10.3392C7.66119 10.2739 7.70085 10.2145 7.75085 10.1645C7.80085 10.1145 7.86021 10.0749 7.92554 10.0478C7.99087 10.0208 8.06089 10.0068 8.1316 10.0068H11.2191C11.2899 10.0068 11.3599 10.0208 11.4252 10.0478C11.4905 10.0749 11.5499 10.1145 11.5999 10.1645C11.6499 10.2145 11.6896 10.2739 11.7166 10.3392C11.7437 10.4046 11.7576 10.4746 11.7576 10.5453C11.7576 10.6881 11.7009 10.8251 11.5999 10.926C11.4989 11.027 11.3619 11.0838 11.2191 11.0838Z" fill="white"/>
<path d="M5.15847 11.0839H3.87585C3.73581 11.0843 3.59707 11.057 3.46768 11.0034C3.33828 10.9499 3.22079 10.8712 3.12201 10.7719C3.02263 10.6732 2.94385 10.5557 2.89024 10.4263C2.83663 10.2969 2.80925 10.1581 2.8097 10.018V8.73516C2.8094 8.59511 2.83684 8.45639 2.89045 8.327C2.94405 8.19761 3.02275 8.08013 3.12201 7.98132L7.74685 3.35593C7.86659 3.23592 8.00892 3.14083 8.16562 3.07613C8.32232 3.01144 8.49029 2.97843 8.65981 2.97901C8.82926 2.97842 8.99715 3.01143 9.15376 3.07613C9.31037 3.14083 9.45261 3.23593 9.57224 3.35593L10.5307 4.31386C10.6518 4.43438 10.7478 4.57772 10.8131 4.73558C10.8785 4.89344 10.9119 5.0627 10.9114 5.23355C10.9118 5.40429 10.8785 5.57343 10.8132 5.7312C10.7479 5.88896 10.652 6.03222 10.531 6.1527L5.91177 10.7714C5.81311 10.8707 5.69573 10.9494 5.56642 11.0031C5.43712 11.0567 5.29846 11.0842 5.15847 11.0839V11.0839ZM3.88689 10.0067H5.15847L9.76958 5.39159C9.79034 5.37085 9.80679 5.34621 9.81797 5.31909C9.82915 5.29196 9.83485 5.26289 9.83474 5.23355C9.83486 5.20418 9.82914 5.17509 9.81791 5.14795C9.80668 5.12082 9.79016 5.0962 9.76931 5.07551L8.81112 4.11759C8.79136 4.09765 8.76783 4.08183 8.7419 4.07106C8.71597 4.06029 8.68816 4.05479 8.66008 4.05486C8.63193 4.05479 8.60404 4.0603 8.57802 4.07106C8.552 4.08183 8.52838 4.09764 8.50851 4.11759L3.88366 8.74297L3.88689 10.0067Z" fill="white"/>
<path d="M8.84665 7.57938C8.77537 7.57951 8.70478 7.56543 8.639 7.53797C8.57322 7.51051 8.51357 7.47022 8.46354 7.41946L6.489 5.41934C6.43929 5.36902 6.39999 5.3094 6.37333 5.24388C6.34667 5.17837 6.33318 5.10824 6.33363 5.03751C6.33408 4.96678 6.34846 4.89683 6.37595 4.83166C6.40344 4.76649 6.4435 4.70737 6.49385 4.65769C6.59546 4.55738 6.73276 4.50154 6.87554 4.50245C7.01832 4.50336 7.1549 4.56094 7.25523 4.66253L9.22869 6.66265C9.2784 6.71297 9.3177 6.77259 9.34436 6.83811C9.37102 6.90362 9.38451 6.97375 9.38406 7.04448C9.38361 7.11521 9.36923 7.18516 9.34174 7.25033C9.31425 7.3155 9.27419 7.37462 9.22385 7.4243C9.12341 7.5236 8.98789 7.57932 8.84665 7.57938Z" fill="white"/>
</svg>
